LX_20210320_001.mat
nRows=20
nColumns=19

name LX_20210320_001.mat
datacolumns 19
datarows 20
range 8.6500719573 8.8400733484
endheader
time	ground_force_vx	ground_force_vy	ground_force_vz	ground_force_px	ground_force_py	ground_force_pz	1_ground_force_vx	1_ground_force_vy	1_ground_force_vz	1_ground_force_px	1_ground_force_py	1_ground_force_pz	ground_torque_x	ground_torque_y	ground_torque_z	1_ground_torque_x	1_ground_torque_y	1_ground_torque_z	
        8.6500719573	        9.0386095718	      479.6485637614	      -27.6245974040	       -0.1196190282	       -0.0186500000	        0.0859036668	       -0.0866241689	        5.9604307524	        2.5297331796	       -0.2000000000	       -0.0186500000	       -0.1700000000	      244.0839256661	        0.0000000000	      412.1253154788	       -3.5496851552	       -1.1102979110	        5.1011821247	
        8.6600719211	        8.1319538134	      485.2637997789	      -27.1298303878	       -0.1258696900	       -0.0186500000	        0.0829812813	        1.9725024598	        9.6661981701	        3.3625553256	       -0.2000000000	       -0.0186500000	       -0.1700000000	      246.3410429828	        0.0000000000	      404.7743880537	       -4.7192900180	       -0.7954929994	        9.2370064562	
        8.6700720448	       15.2790855086	      490.7723971304	      -27.9789257080	       -0.1324768627	       -0.0186500000	        0.0839891389	        2.0132145535	        5.7900546186	        2.5459504351	       -0.2000000000	       -0.0186500000	       -0.1700000000	      251.1217394857	        0.0000000000	      412.9592707378	       -3.4790837904	        0.2358052884	        1.3072592407	
        8.6800721686	       11.0575724386	      495.7854579637	      -28.7086648195	       -0.1394645249	       -0.0186500000	        0.0855502081	       -1.2575967105	        7.0457250738	        0.7542054818	       -0.2000000000	       -0.0186500000	       -0.1700000000	      255.3304828866	        0.0000000000	      418.9543183416	       -3.4303197831	        0.7011988437	        3.7177581036	
        8.6900720523	       19.1407140276	      500.0634558121	      -26.4047581832	       -0.1468360756	       -0.0186500000	        0.0858583597	        3.1655131413	        8.9113497705	        0.5429215162	       -0.2000000000	       -0.0186500000	       -0.1700000000	      258.4813390387	        0.0000000000	      418.0931183435	       -4.1027421414	        2.5179944218	        7.6554515437	
        8.7000721360	       20.8757939329	      503.5510942849	      -30.0745707892	       -0.1545715963	       -0.0186500000	        0.0831451145	       -1.7264919411	        5.1765681771	        5.4346589738	       -0.2000000000	       -0.0186500000	       -0.1700000000	      262.3167506599	        0.0000000000	      415.8205753675	       -3.9152365820	       -3.8684314266	        3.3407172755	
        8.7100721798	       25.4242908286	      506.3769771289	      -31.8442973893	       -0.1626282932	       -0.0186500000	        0.0840842212	        2.0788915828	        7.8203881865	        2.5643197878	       -0.2000000000	       -0.0186500000	       -0.1700000000	      265.8107591102	        0.0000000000	      419.8038895567	       -3.9427997981	       -0.4622384712	        6.7370502129	
        8.7200723035	       35.5869260512	      508.8151784967	      -31.2120408822	       -0.1709456852	       -0.0186500000	        0.0863109801	        2.3111828834	        5.8107121866	       -0.0271146037	       -0.2000000000	       -0.0186500000	       -0.1700000000	      268.3195165483	        0.0000000000	      421.9704932903	       -2.7332973615	        3.6558689569	        5.0792341341	
        8.7300725072	       33.0840200187	      511.2173754053	      -32.6371771122	       -0.1794572888	       -0.0186500000	        0.0860417821	       -0.7200386959	        7.0614840835	        1.7452625073	       -0.2000000000	       -0.0186500000	       -0.1700000000	      269.6754431738	        0.0000000000	      414.3333559217	       -3.4989435439	       -1.1096098899	        6.0820081845	
        8.7400724710	       43.8226334616	      513.9366215288	      -30.9747683413	       -0.1881030777	       -0.0186500000	        0.0871403367	        1.5613127156	        6.0833846603	        2.9711468637	       -0.2000000000	       -0.0186500000	       -0.1700000000	      271.9736647956	        0.0000000000	      415.1591167706	       -3.6520063051	        0.4514172349	        5.8190537524	
        8.7500725147	       48.9285775965	      517.2615193551	      -34.1496148263	       -0.1968386411	       -0.0186500000	        0.0869002187	       -0.4111457144	        7.1174214059	        3.8665607661	       -0.2000000000	       -0.0186500000	       -0.1700000000	      274.9490357774	        0.0000000000	      415.4571625354	       -4.5714007606	       -2.5640313256	        5.9508878005	
        8.7600726385	       48.8844300138	      521.3706646467	      -34.9662700098	       -0.2056387464	       -0.0186500000	        0.0859483982	        2.6906037746	        5.1625842356	        1.3018461354	       -0.2000000000	       -0.0186500000	       -0.1700000000	      278.7978660617	        0.0000000000	      414.1613691434	       -3.1046207060	        1.3926837858	        3.5467979068	
        8.7700727223	       59.9288938239	      526.3149995494	      -32.7204961332	       -0.2144944601	       -0.0186500000	        0.0855383607	        0.4108284698	        8.1236188580	        1.0957225284	       -0.2000000000	       -0.0186500000	       -0.1700000000	      281.7883175307	        0.0000000000	      413.4547573822	       -3.5364891824	        0.7810696489	        6.6999977591	
        8.7800728460	       55.3680526144	      532.0302706106	      -31.7595178089	       -0.2234063988	       -0.0186500000	        0.0859861348	        2.4368558811	        5.6874842172	        2.1162007241	       -0.2000000000	       -0.0186500000	       -0.1700000000	      283.9743851018	        0.0000000000	      411.2445172286	       -3.3251146738	        0.1174400329	        2.9736790656	
        8.7900728897	       67.1080141092	      538.3698193392	      -30.3294455332	       -0.2323769959	       -0.0186500000	        0.0868090141	       -1.2220007151	        6.7085592336	        4.2644072554	       -0.2000000000	       -0.0186500000	       -0.1700000000	      284.6932633710	        0.0000000000	      408.6860931116	       -3.6731550011	       -1.7800108385	        5.5550556296	
        8.8000729734	       72.0455085240	      545.1406625878	      -30.0189132395	       -0.2414047575	       -0.0186500000	        0.0865014512	       -2.1377380314	       15.8627260823	        5.3969931316	       -0.2000000000	       -0.0186500000	       -0.1700000000	      283.5448682595	        0.0000000000	      402.7148780273	       -8.7271622535	       -5.4648429910	       13.6748494340	
        8.8100730572	       74.4333097919	      552.1275792447	      -30.4367615120	       -0.2504815540	       -0.0186500000	        0.0847402148	       -5.8308198355	       20.4365783206	        2.1291229796	       -0.2000000000	       -0.0186500000	       -0.1700000000	      281.2466327592	        0.0000000000	      389.6005022009	      -10.0306353764	       -3.3159148947	       22.6272021024	
        8.8200731810	       85.3187234976	      559.1006337222	      -29.0325731569	       -0.2595903101	       -0.0186500000	        0.0860341439	       17.0311473413	       44.4157230350	        5.9148046672	       -0.2000000000	       -0.0186500000	       -0.1700000000	      278.1662961556	        0.0000000000	      381.7324338087	      -22.0912150013	        3.1619175842	       45.6704687147	
        8.8300732646	       84.6763835590	      565.8101304639	      -28.3802271640	       -0.2687091393	       -0.0186500000	        0.0882377226	       17.2888011578	       81.6482072566	        4.2764382643	        0.0365198810	       -0.0186500000	       -0.0775645812	      273.0445959694	        0.0000000000	      372.4958095328	      -40.4438817961	        4.9578241763	       85.5240695707	
        8.8400733484	       95.8788853378	      571.9770802864	      -27.6326557103	       -0.2778205049	       -0.0186500000	        0.0892099909	       20.8254583462	      121.0576555373	        2.6081389825	        0.0580541562	       -0.0186500000	       -0.0952545920	      265.0471250667	        0.0000000000	      356.9831382638	      -57.6285263469	        9.4332546317	      128.8349416859	
